<svg width="1024" height="1024" viewBox="-6 -6 36 36" xmlns="http://www.w3.org/2000/svg">
  <rect x="-6" y="-6" width="36" height="36" fill="#0F0F14" />
  <defs>
    <linearGradient id="logoGradient" x1="0" y1="0" x2="1" y2="1">
      <stop offset="0" stop-color="#7C5CFF" />
      <stop offset="1" stop-color="#FF5CA8" />
    </linearGradient>
    <clipPath id="logoHeartClip">
      <path d="M12,21.35 L10.55,20.03 C5.4,15.36 2,12.28 2,8.5 C2,5.42 4.42,3 7.5,3 C9.24,3 10.91,3.81 12,5.09 C13.09,3.81 14.76,3 16.5,3 C19.58,3 22,5.42 22,8.5 C22,12.28 18.6,15.36 13.45,20.04 L12,21.35 Z" />
    </clipPath>
  </defs>
  <path d="M12,21.35 L10.55,20.03 C5.4,15.36 2,12.28 2,8.5 C2,5.42 4.42,3 7.5,3 C9.24,3 10.91,3.81 12,5.09 C13.09,3.81 14.76,3 16.5,3 C19.58,3 22,5.42 22,8.5 C22,12.28 18.6,15.36 13.45,20.04 L12,21.35 Z" fill="url(#logoGradient)" />
  <g clip-path="url(#logoHeartClip)" fill="#0F0F14" fill-opacity="0.55">
    <rect x="6.5" y="13.5" width="1.6" height="5" rx="0.8" />
    <rect x="9" y="10.5" width="1.6" height="8" rx="0.8" />
    <rect x="11.5" y="7.5" width="1.6" height="11" rx="0.8" />
    <rect x="14" y="11.5" width="1.6" height="7" rx="0.8" />
    <rect x="16.5" y="14" width="1.6" height="4.5" rx="0.8" />
  </g>
</svg>
