<svg width="1200" height="630" viewBox="0 0 1200 630" xmlns="http://www.w3.org/2000/svg">
  <defs>
    <linearGradient id="logoGradient" x1="0" y1="0" x2="1" y2="1">
      <stop offset="0" stop-color="#7C5CFF" />
      <stop offset="1" stop-color="#FF5CA8" />
    </linearGradient>
    <clipPath id="logoHeartClip">
      <path d="M12,21.35 L10.55,20.03 C5.4,15.36 2,12.28 2,8.5 C2,5.42 4.42,3 7.5,3 C9.24,3 10.91,3.81 12,5.09 C13.09,3.81 14.76,3 16.5,3 C19.58,3 22,5.42 22,8.5 C22,12.28 18.6,15.36 13.45,20.04 L12,21.35 Z" />
    </clipPath>
    <radialGradient id="glowTop">
      <stop offset="0" stop-color="#7C5CFF" stop-opacity="0.32" />
      <stop offset="0.5" stop-color="#7C5CFF" stop-opacity="0.1" />
      <stop offset="1" stop-color="#7C5CFF" stop-opacity="0" />
    </radialGradient>
    <radialGradient id="glowBottom">
      <stop offset="0" stop-color="#FF5CA8" stop-opacity="0.28" />
      <stop offset="0.5" stop-color="#FF5CA8" stop-opacity="0.08" />
      <stop offset="1" stop-color="#FF5CA8" stop-opacity="0" />
    </radialGradient>
  </defs>

  <rect width="1200" height="630" fill="#0F0F14" />
  <circle cx="60" cy="30" r="420" fill="url(#glowTop)" />
  <circle cx="1140" cy="600" r="440" fill="url(#glowBottom)" />

  <g transform="translate(492, 142) scale(9)">
    <path d="M12,21.35 L10.55,20.03 C5.4,15.36 2,12.28 2,8.5 C2,5.42 4.42,3 7.5,3 C9.24,3 10.91,3.81 12,5.09 C13.09,3.81 14.76,3 16.5,3 C19.58,3 22,5.42 22,8.5 C22,12.28 18.6,15.36 13.45,20.04 L12,21.35 Z" fill="url(#logoGradient)" />
    <g clip-path="url(#logoHeartClip)" fill="#0F0F14" fill-opacity="0.55">
      <rect x="6.5" y="13.5" width="1.6" height="5" rx="0.8" />
      <rect x="9" y="10.5" width="1.6" height="8" rx="0.8" />
      <rect x="11.5" y="7.5" width="1.6" height="11" rx="0.8" />
      <rect x="14" y="11.5" width="1.6" height="7" rx="0.8" />
      <rect x="16.5" y="14" width="1.6" height="4.5" rx="0.8" />
    </g>
  </g>

  <text x="600" y="365" text-anchor="middle" font-family="-apple-system, Helvetica, Arial, sans-serif" font-size="52" font-weight="800" fill="#FFFFFF">Meylio</text>
  <text x="600" y="404" text-anchor="middle" font-family="-apple-system, Helvetica, Arial, sans-serif" font-size="21" fill="#9A9AA8">Connectés par la musique, pas par le physique.</text>
</svg>
